<?xml version="1.0" standalone="no"?>
<!DOCTYPE svg PUBLIC "-//W3C//DTD SVG 20010904//EN"
 "http://www.w3.org/TR/2001/REC-SVG-20010904/DTD/svg10.dtd">
<svg version="1.0" xmlns="http://www.w3.org/2000/svg"
 width="512.000000pt" height="512.000000pt" viewBox="0 0 512.000000 512.000000"
 preserveAspectRatio="xMidYMid meet">

<g transform="translate(0.000000,512.000000) scale(0.100000,-0.100000)"
fill="#000000" stroke="none">
<path d="M2277 4863 c-49 -3 -80 -8 -82 -16 -3 -7 8 -91 23 -187 l27 -175 30
-3 c17 -2 68 -1 114 3 l84 7 -7 142 c-4 77 -9 162 -13 189 l-6 47 -46 -2 c-25
-1 -81 -4 -124 -5z"/>
<path d="M1690 4739 c-117 -40 -290 -120 -290 -134 0 -10 146 -323 156 -334 2
-2 39 12 81 31 43 20 112 48 153 63 41 15 79 31 84 36 5 5 -2 41 -16 86 -14
43 -36 121 -48 173 -12 52 -25 98 -29 101 -3 4 -44 -6 -91 -22z"/>
<path d="M994 4357 c-49 -35 -191 -167 -234 -218 l-39 -46 140 -124 c77 -68
143 -125 147 -126 4 -1 21 16 37 38 24 33 80 84 208 190 7 5 -172 249 -217
296 -8 8 -18 6 -42 -10z"/>
<path d="M3640 4276 c0 -17 178 -1263 186 -1300 6 -28 11 -24 198 163 105 105
196 191 203 191 10 0 50 -86 86 -190 68 -191 97 -371 97 -592 0 -331 -67 -613
-212 -888 -295 -560 -824 -932 -1459 -1024 -123 -18 -384 -21 -509 -6 -728 91
-1339 566 -1588 1235 -52 139 -76 228 -103 380 -26 150 -29 422 -5 560 8 49
12 93 8 97 -11 10 -366 58 -374 50 -14 -15 -29 -165 -35 -337 -7 -227 12 -407
67 -621 80 -313 206 -577 395 -829 161 -213 344 -386 569 -537 626 -419 1441
-507 2150 -234 966 374 1569 1340 1475 2366 -22 247 -97 522 -204 755 l-55
120 232 232 c128 128 230 233 226 233 -4 0 -54 7 -110 15 -57 8 -346 48 -643
90 -297 41 -552 77 -567 80 -19 3 -28 0 -28 -9z"/>
<path d="M2428 3962 l-98 -3 0 -162 0 -162 -82 -23 c-282 -78 -461 -281 -475
-537 -17 -300 144 -478 587 -650 168 -66 243 -104 300 -152 157 -134 121 -351
-72 -438 -114 -52 -331 -46 -507 12 -59 20 -190 76 -232 100 -3 2 -25 -65 -48
-149 -24 -83 -45 -158 -48 -165 -7 -19 143 -87 258 -118 77 -20 232 -45 287
-45 9 0 12 -45 12 -190 l0 -190 155 0 155 0 2 181 3 181 75 19 c245 61 438
246 491 469 17 74 15 211 -5 289 -53 208 -218 348 -576 491 -300 119 -390 193
-398 325 -5 82 11 128 62 179 62 63 129 81 291 81 145 -1 258 -24 374 -76 36
-16 68 -26 72 -22 8 9 89 284 89 302 0 36 -239 108 -387 118 l-93 6 0 164 0
163 -27 1 c-16 1 -37 2 -48 3 -11 0 -64 0 -117 -2z"/>
<path d="M432 3698 c-40 -68 -142 -288 -142 -309 0 -13 44 -33 170 -78 94 -33
174 -61 179 -61 5 0 14 15 20 33 7 17 38 84 69 147 31 63 58 118 60 121 3 6
-308 199 -320 199 -2 0 -18 -24 -36 -52z"/>
</g>
</svg>
